<?xml version="1.0" encoding="UTF-8" standalone="no" ?>
<!DOCTYPE svg PUBLIC "-//W3C//DTD SVG 1.1//EN" "http://www.w3.org/Graphics/SVG/1.1/DTD/svg11.dtd">
<svg xmlns="http://www.w3.org/2000/svg" xmlns:xlink="http://www.w3.org/1999/xlink" version="1.1" width="600" height="600" viewBox="599.11 -476.89 1080 1080" xml:space="preserve">
<defs>
</defs>
<g transform="matrix(1 0 0 1 540 540)" id="11eba85c-902c-4b93-bc24-1d89fed51ddd"  >
</g>
<g transform="matrix(1 0 0 1 1140.26 33.09)"  >
<path style="stroke: #fff; stroke-width: 2; stroke-dasharray: none; stroke-linecap: butt; stroke-dashoffset: 0; stroke-linejoin: miter; stroke-miterlimit: 4; fill: rgb(0,0,0); opacity: 1; fill-opacity: 0.0; stroke-opacity: 0.1;" vector-effect="non-scaling-stroke"  transform=" translate(-500.02, -468.8)" d="M 819.7 68 C 736.6 20.1 630.1 48.7 582.2 131.8 C 537.7 209 559.3000000000001 306.3 629.1 358.20000000000005 L 366.8 781.5 L 238.5 811.6 L 236.5 803.2 C 235.5 799 231.3 796.4000000000001 227.1 797.4000000000001 L 99.4 827.7 C 95.2 828.7 92.60000000000001 832.9000000000001 93.60000000000001 837.1 L 105.4 886.8000000000001 C 106.4 891.0000000000001 110.60000000000001 893.6 114.80000000000001 892.6 L 242.60000000000002 862.4 C 246.8 861.4 249.40000000000003 857.1999999999999 248.40000000000003 853 L 245.90000000000003 842.5 L 380.5 810.9 C 384.6 809.9 388.1 807.4 390.3 803.8 L 656.1 374.79999999999995 C 737.5 414.9 837.5 385.4 883.5 305.69999999999993 C 931.3 222.5 902.7 116 819.7 68 z M 668.6 354.4 L 707.3000000000001 292 C 741.8000000000001 304.1 781.2 290.3 800.1 257.5 C 821.5 220.3 808.8000000000001 172.9 771.6 151.4 C 734.4 130 687 142.70000000000002 665.5 179.9 C 647 212 654 251.7 680.1 275.8 L 641.6 338 C 582.6 292.9 564.6 209.7 602.7 143.7 C 644.1 71.99999999999999 736.1 47.29999999999998 807.8000000000001 88.6 C 879.5000000000001 130 904.2 222 862.9000000000001 293.7 C 823.6 361.9 738.5 387.5 668.6 354.4 z" stroke-linecap="round" />
</g>
</svg>
