<?xml version="1.0" encoding="iso-8859-1"?>
<!-- Generator: Adobe Illustrator 19.0.0, SVG Export Plug-In . SVG Version: 6.00 Build 0)  -->
<svg version="1.1" id="Capa_1" xmlns="http://www.w3.org/2000/svg" xmlns:xlink="http://www.w3.org/1999/xlink" x="0px" y="0px"
	viewBox="0 0 43.421 43.421" style="enable-background:new 0 0 43.421 43.421;" xml:space="preserve" width="90px" height="90px" fill="#ffffff">
<g>
	<path d="M31.859,9.734l-9.441-9.441c-0.391-0.391-1.023-0.391-1.414,0l-9.441,9.441c-0.391,0.391-0.391,1.023,0,1.414
		c0.391,0.391,1.023,0.391,1.414,0l7.734-7.734v17.007h-3c-0.553,0-1,0.448-1,1s0.447,1,1,1h3v4h-3c-0.553,0-1,0.448-1,1
		s0.447,1,1,1h3v15h2v-15h3c0.553,0,1-0.448,1-1s-0.447-1-1-1h-3v-4h3c0.553,0,1-0.448,1-1s-0.447-1-1-1h-3V3.414l7.734,7.734
		c0.195,0.195,0.451,0.293,0.707,0.293s0.512-0.098,0.707-0.293C32.249,10.758,32.249,10.125,31.859,9.734z M21.704,2.421
		l0.007-0.007l0.007,0.007H21.704z"/>
</g>
<g>
</g>
<g>
</g>
<g>
</g>
<g>
</g>
<g>
</g>
<g>
</g>
<g>
</g>
<g>
</g>
<g>
</g>
<g>
</g>
<g>
</g>
<g>
</g>
<g>
</g>
<g>
</g>
<g>
</g>
</svg>
